<?xml version="1.0" encoding="UTF-8"?>
<svg id="Layer_1" xmlns="http://www.w3.org/2000/svg" version="1.1" viewBox="0 0 216 216">
  <!-- Generator: Adobe Illustrator 29.2.1, SVG Export Plug-In . SVG Version: 2.1.0 Build 116)  -->
  <defs>
    <style>
      .st0 {
        fill: #2c2927;
      }

      .st1 {
        fill: #bc9b5f;
      }
    </style>
  </defs>
  <g>
    <path class="st0" d="M35,140.4h11.6l1.3,3.6c-.5-1-1.2-1.8-2.1-2.4-.9-.6-1.9-.9-3-.9h-1.7c-.5,0-.9.2-1.2.5-.3.3-.5.7-.5,1.2v4.9h3.4c.6,0,1.1-.2,1.5-.6.4-.4.7-.9.8-1.4v4.3c0-.6-.4-1-.8-1.4-.4-.4-1-.6-1.5-.6h-3.4v6.5c0,.5.2.9.5,1.3.3.4.7.6,1.2.7h-5.9c.5-.1.9-.3,1.2-.7.3-.4.5-.8.5-1.3v-11.8c0-.5-.2-.9-.5-1.3-.3-.4-.7-.6-1.2-.7Z"/>
    <path class="st0" d="M55,155.9c1.1,0,2.1-.3,3-.9.9-.6,1.6-1.4,2.1-2.4l-1.3,3.6h-11.2c.5,0,.9-.3,1.2-.7.3-.4.5-.8.5-1.3v-11.8c0-.5-.2-.9-.5-1.3-.3-.4-.7-.6-1.2-.7h6c-.5,0-.9.3-1.2.7-.3.4-.5.8-.5,1.3v11.8c0,.5.2.9.5,1.2.3.3.7.5,1.2.5h1.4Z"/>
    <path class="st0" d="M66.1,140.7c-.5,0-.9.2-1.2.5-.3.3-.5.7-.5,1.2v4.9h3.4c.6,0,1.1-.2,1.5-.6.4-.4.7-.9.8-1.4v4.3c-.1-.6-.4-1-.8-1.4-.4-.4-1-.6-1.5-.6h-3.4v6.6c0,.5.2.8.5,1.2.3.3.7.5,1.2.5h1.8c1.1,0,2.1-.3,3-.9.9-.6,1.6-1.4,2.1-2.4l-1.3,3.6h-11.6c.5-.1.9-.3,1.2-.7.3-.4.5-.8.5-1.3v-11.8c0-.5-.2-.9-.5-1.3-.3-.4-.7-.6-1.2-.7h11.6l1.3,3.6c-.5-1-1.2-1.8-2.1-2.4-.9-.6-1.9-.9-3-.9h-1.7Z"/>
    <path class="st0" d="M85.3,154.4c.6,1,1.4,1.6,2.4,1.8h-6.2c.3,0,.5-.2.7-.4.2-.2.3-.4.3-.7s0-.4-.2-.6l-3.1-5.4-3.6,5.4c-.2.3-.2.7,0,1,.2.3.4.6.8.6h-3.5c.9-.2,1.7-.8,2.4-1.8l3-4.5c.5-.7.5-1.4,0-2.2l-3.1-5.5c-.6-1-1.4-1.6-2.5-1.8h6.2c-.3,0-.5.2-.6.4-.2.2-.2.4-.2.7s0,.4.2.5l2.8,5,2.8-4.9c0-.2.1-.3.1-.5,0-.3,0-.5-.3-.8-.2-.2-.4-.4-.7-.4h3.5c-1,.2-1.8.8-2.3,1.8l-2.4,4c-.2.3-.3.7-.2,1.2,0,.5.1.8.3,1.1l3.4,5.9Z"/>
    <path class="st0" d="M101.9,148.2h8.4c0,.6,0,1.2,0,1.8,0,.5-.1,1.1-.2,1.7-.1.6-.3,1.1-.5,1.6-.2.5-.5.9-.8,1.4-.3.4-.7.8-1.2,1.1-.5.3-1,.5-1.7.7-.7.2-1.4.3-2.2.3s-2.2-.2-3.1-.6c-.9-.4-1.7-.9-2.4-1.5-.6-.6-1.1-1.4-1.6-2.2s-.7-1.7-.8-2.6c0-.9-.1-1.8,0-2.7s.3-1.8.8-2.6c.4-.8.9-1.5,1.5-2.2.6-.6,1.4-1.1,2.3-1.5.9-.4,2-.6,3.1-.6h4.7l1.3,3.7c-.5-1-1.2-1.8-2.1-2.4-.9-.6-1.9-.9-3-.9h-.4c-1.1,0-2,.4-2.8,1.1-.8.8-1.4,1.7-1.8,2.8-.4,1.1-.6,2.4-.6,3.7,0,1.3.1,2.6.5,3.7.3,1.2.9,2.1,1.7,2.9.8.8,1.7,1.2,2.8,1.3,1.9,0,3.3-.7,4.1-2,.6-1,.7-2.1.3-3.3-.4-1.1-1.1-1.8-2.1-2.2-.4-.1-.8-.2-1.2-.2h-2.8v-.4Z"/>
    <path class="st0" d="M117.6,155.9c1.1,0,2.1-.3,3-.9.9-.6,1.6-1.4,2.1-2.4l-1.3,3.6h-11.2c.5,0,.9-.3,1.2-.7.3-.4.5-.8.5-1.3v-11.8c0-.5-.2-.9-.5-1.3-.3-.4-.7-.6-1.2-.7h6c-.5,0-.9.3-1.2.7-.3.4-.5.8-.5,1.3v11.8c0,.5.2.9.5,1.2.3.3.7.5,1.2.5h1.4Z"/>
    <path class="st0" d="M131.5,139.9c1.5,0,3,.4,4.3,1.1,1.3.8,2.3,1.8,3.1,3.1.8,1.3,1.1,2.7,1.1,4.2s-.4,3-1.1,4.3c-.8,1.3-1.8,2.3-3.1,3.1s-2.7,1.1-4.3,1.1-3-.4-4.3-1.1c-1.3-.8-2.4-1.8-3.1-3.1-.8-1.3-1.1-2.7-1.1-4.3s.4-2.9,1.1-4.2c.8-1.3,1.8-2.3,3.1-3.1,1.3-.8,2.8-1.1,4.3-1.1ZM131.5,156.5c3.5,0,5.3-2.7,5.3-8.1s-1.8-8.2-5.3-8.2-5.3,2.7-5.3,8.1,1.8,8.1,5.3,8.1Z"/>
    <path class="st0" d="M147.5,147.4c.8,0,1.5,0,2.1.1.6.1,1.2.4,1.8.7.6.3,1,.8,1.3,1.4.3.6.5,1.3.5,2.2,0,1.3-.5,2.3-1.4,3.2-.9.9-2.2,1.3-3.6,1.3h-8.3c.5-.1.9-.3,1.2-.7.3-.4.5-.8.5-1.3v-11.8c0-.5-.2-.9-.5-1.3-.3-.4-.7-.6-1.2-.7h7.7c1.2,0,2.2.3,3,.8.8.5,1.2,1.4,1.2,2.5s0,.9-.2,1.2c-.2.4-.3.7-.5.9-.2.2-.5.4-.8.6-.4.2-.6.3-.9.4-.2,0-.5.2-.9.3-.4.1-.6.2-.8.2ZM146.1,140.7c-.5,0-1,.2-1.4.5-.4.3-.6.7-.6,1.2v5.3c.2,0,.4,0,.7-.1.2,0,.5-.1.9-.2.4,0,.8-.2,1.1-.4s.7-.4,1-.6c.3-.2.6-.6.8-1,.2-.4.3-.8.3-1.3,0-1-.2-1.8-.7-2.4-.4-.6-1.1-.9-2-.9h-.2ZM146.3,155.9c1.1,0,2.1-.4,2.9-1.2.8-.8,1.2-1.8,1.2-2.9s-.1-1-.3-1.4c-.2-.4-.5-.8-.8-1.1-.3-.3-.7-.5-1.1-.7-.4-.2-.9-.4-1.2-.5-.4-.1-.8-.2-1.2-.3-.4,0-.8-.1-1-.1-.2,0-.4,0-.6,0v6.5c0,.5.2.9.5,1.2s.9.5,1.5.5h.2Z"/>
    <path class="st0" d="M167.9,156.2h-6c.4-.1.7-.3.9-.7.2-.4.2-.8,0-1.3l-.8-2.2h-6.2l-.8,2.2c-.2.5-.2.9,0,1.3.2.4.5.6.9.7h-3.6c.5-.1,1-.3,1.4-.7.4-.4.7-.8.9-1.3l4.1-11.7h0c-.2-.5-.5-1-.9-1.4-.4-.4-.9-.6-1.4-.7h6c-.5.1-.8.3-.9.7-.2.4-.2.8,0,1.3l4.1,11.8c.2.5.5.9.9,1.3.4.4.9.6,1.4.7ZM156,151.6h6l-3-8.7-3,8.7Z"/>
    <path class="st0" d="M175.5,155.9c1.1,0,2.1-.3,3-.9.9-.6,1.6-1.4,2.1-2.4l-1.3,3.6h-11.2c.5,0,.9-.3,1.2-.7.3-.4.5-.8.5-1.3v-11.8c0-.5-.2-.9-.5-1.3-.3-.4-.7-.6-1.2-.7h6c-.5,0-.9.3-1.2.7-.3.4-.5.8-.5,1.3v11.8c0,.5.2.9.5,1.2.3.3.7.5,1.2.5h1.4Z"/>
  </g>
  <g>
    <path class="st1" d="M68,168.1v-3.8h.8v3.8h-.8Z"/>
    <path class="st1" d="M75.5,168.1v-3.8h.9l1,1.5c0,.1.2.3.3.4.1.2.2.3.3.4v.2c.1,0,.1-2.5.1-2.5h.8v3.8h-.9l-1-1.4c-.1-.2-.2-.3-.3-.5-.1-.2-.2-.3-.3-.4v-.2c0,0,0,2.5,0,2.5h-.8Z"/>
    <path class="st1" d="M85.4,167.6l.3-.6c.4.3.8.4,1.3.4s.4,0,.5-.1c.1,0,.2-.2.2-.3s0-.2-.2-.3c-.1,0-.3-.1-.5-.2-.2,0-.3,0-.4-.1-.1,0-.2,0-.4-.1s-.2-.1-.3-.2-.2-.2-.2-.3,0-.3,0-.4c0-.4.1-.6.4-.8.3-.2.6-.3,1-.3s1,.1,1.4.4l-.3.6c-.3-.2-.7-.3-1.1-.3s-.3,0-.4,0-.2.1-.2.3,0,.2.2.3c.1,0,.3.1.5.2,1,.2,1.5.6,1.5,1.2s-.2.7-.5.9c-.3.2-.7.3-1.1.3-.6,0-1.1-.2-1.6-.5Z"/>
    <path class="st1" d="M97.9,167.7c-.3.3-.7.4-1.2.4s-.8-.1-1.2-.4c-.3-.3-.5-.7-.5-1.1v-2.3h.8v2.3c0,.2,0,.5.2.6.2.2.4.2.6.2s.4,0,.6-.2c.2-.2.2-.4.2-.6v-2.3h.8v2.3c0,.5-.2.8-.5,1.1Z"/>
    <path class="st1" d="M105,168.1v-3.8h1.6c.5,0,1,.1,1.3.4.3.3.4.6.4,1.1s0,.5-.2.7c-.1.2-.3.4-.5.5l.8,1.1h-1l-.6-.9c-.1,0-.3,0-.6,0h-.4v.9h-.8ZM105.8,166.5h.8c.2,0,.4,0,.6-.2.1-.1.2-.3.2-.5s0-.4-.2-.5c-.1-.1-.3-.2-.6-.2h-.8v1.5Z"/>
    <path class="st1" d="M114.6,168.1l1.7-3.8h.8l1.6,3.8h-.8l-.3-.6h-1.9l-.3.6h-.8ZM115.9,166.8h1.4l-.3-.7-.4-1c-.1.4-.3.7-.4,1l-.3.7Z"/>
    <path class="st1" d="M125,168.1v-3.8h.9l1,1.5c0,.1.2.3.3.4.1.2.2.3.3.4v.2c.1,0,.1-2.5.1-2.5h.8v3.8h-.9l-1-1.4c-.1-.2-.2-.3-.3-.5-.1-.2-.2-.3-.3-.4v-.2c0,0,0,2.5,0,2.5h-.8Z"/>
    <path class="st1" d="M135,166.2c0-.6.2-1,.6-1.4.4-.4.9-.6,1.4-.6s.9.1,1.3.4l-.5.6c-.2-.1-.4-.2-.7-.2s-.7.1-.9.4c-.2.2-.3.5-.3.9s.1.6.3.9c.2.2.5.4.8.4s.6-.1.9-.3l.5.6c-.4.3-.8.5-1.4.5s-1.1-.2-1.4-.6c-.4-.4-.6-.8-.6-1.4Z"/>
    <path class="st1" d="M144.8,168.1v-3.8h3v.7h-2.2v.8h2.1v.7h-2.1v.9h2.3v.7h-3.1Z"/>
  </g>
  <g>
    <path class="st0" d="M114.2,72.4c0,1.4-1.1,2.5-2.5,2.5s-2.5-1.1-2.5-2.5h5Z"/>
    <path class="st0" d="M82.2,69.9c-.7-.5-1.5-1.2-2.3-2.1-3.7-3.8-5.8-8.5-6.1-10.7,0,0-1.7,6.1,4.4,12.4,1.8,1.8,3.5,3,4.4,3.5-.2-1.1-.3-2.2-.4-3.2Z"/>
    <path class="st0" d="M82.9,63.3c-.8-.7-1.9-1.8-3-3.3-1.2-1.6-2.2-3.3-2.9-5.1-.9-2.2-1.4-4.6-1.6-7.1,0,0-2.3,7.4,2.6,13.7,1.9,2.4,3.7,3.9,4.3,4.4.1-.9.3-1.8.6-2.7Z"/>
    <path class="st0" d="M83.3,93.3c0,.2,3.3,4.1,9.4,4.7h0c-2-1.3-3.9-2.7-5.5-4.4l-3.8-.3Z"/>
    <path class="st0" d="M80.7,84.3c-.2-.5-.4-.9-.6-1.4-1.2-.7-3.4-2.1-3.4-2.1,0,0,.3,4.2,4.1,7.8,1.8,1.7,3.8,2.4,4.3,2.6-1.8-2.1-3.2-4.4-4.4-6.9Z"/>
    <path class="st0" d="M89.4,88.8c-1.8-1.9-3.2-4.1-4.3-6.5-1-2.1-1.5-4-1.8-5.2,0,0,0-.1,0-.2l-2.2-1.3c-.2-.1-.4-.2-.6-.4,0,.2,0,.9.3,1.9-1.7-1.1-3.2-2.5-4.4-3.9-1.3-1.5-2.3-3.2-3-4.9-1-2.4-1.2-4.6-1.2-5.4h0s-2.1,6.1,2.3,11.9c1.7,2.2,4,4,6.6,5.5l.7.4c.3.8.7,1.7,1.1,2.7,1.2,2.6,2.8,5,4.7,7.1,2,2.3,4.4,4.2,7.2,5.9.6-.5,1.3-1.1,2-1.7-2.8-1.6-5.3-3.5-7.3-5.8Z"/>
    <path class="st0" d="M79.2,91.8c0,0,0-.2-.1-.2-.2-.2-.4-.3-.6-.5-1.5-1.4-2.8-3.2-3.7-5,.2,1.2.7,3.9,2.2,6.9,1.2,2.3,2.8,4.2,4.8,5.8,2.1,1.7,4.7,2.9,7.5,3.6l.2-.3c0-.1.6-.8,1.4-1.8-3-.6-5.5-1.7-7.6-3.4-1.7-1.3-3.1-3-4.2-5Z"/>
    <path class="st0" d="M133.4,69.9c.7-.5,1.5-1.2,2.3-2.1,3.7-3.8,5.8-8.5,6.1-10.7,0,0,1.7,6.1-4.4,12.4s-3.5,3-4.4,3.5c.2-1.1.3-2.2.4-3.2Z"/>
    <path class="st0" d="M132.7,63.3c.8-.7,1.9-1.8,3-3.3,1.2-1.6,2.2-3.3,2.9-5.1.9-2.2,1.4-4.6,1.6-7.1,0,0,2.3,7.4-2.6,13.7s-3.7,3.9-4.3,4.4c-.1-.9-.3-1.8-.6-2.7Z"/>
    <path class="st0" d="M134.9,84.3c.2-.5.4-.9.6-1.4,1.2-.7,3.4-2.1,3.4-2.1,0,0-.3,4.2-4.1,7.8s-3.8,2.4-4.3,2.6c1.8-2.1,3.2-4.4,4.4-6.9Z"/>
    <path class="st0" d="M143.4,62.9h0c0,.8-.2,3-1.2,5.4-.7,1.8-1.7,3.4-3,4.9-1.2,1.5-2.7,2.8-4.4,3.9.2-1,.3-1.7.3-1.9-.2.1-.4.3-.6.4l-2.2,1.3c0,0,0,.1,0,.2-.3,1.2-.8,2.9-1.7,4.9,0,.7.1,1.4.1,2,0,1.1,0,2.1-.3,3.2.9-1.3,1.6-2.6,2.3-4,.4-.9.8-1.8,1.1-2.7l.7-.4c2.6-1.5,5-3.2,6.6-5.5,4.4-5.8,2.3-11.9,2.3-11.9Z"/>
    <path class="st0" d="M126.4,71.6h0c.2.2.3.4.5.7.5-2.8,0-4.9-.2-5.6l-2.5,2.5c.8.8,1.5,1.6,2.2,2.5Z"/>
    <g>
      <path class="st0" d="M91.2,86.2c1.2,1.2,2.6,2.3,4,3.2,1.8,1.1,3.7,1.9,5.9,2.4,1.2-.7,2.4-1.2,3.6-1.8,0,0,0,0,0,0-3.2-.4-5.8-1.3-8.2-2.8-2.7-1.6-4.8-3.8-6.5-6.8-1.5-2.7-2.6-5.3-3.1-7.9-.4-2-.5-4-.3-5.9,0-.8.2-1.5.4-2.1l-1.9-1.9c-.3.9-.7,2.1-.9,3.6-.3,2.1-.2,4.4.3,6.7.6,2.9,1.7,5.8,3.4,8.7,1,1.7,2.1,3.2,3.3,4.5Z"/>
      <path class="st0" d="M131.5,66.3c-.2-1.4-.5-2.6-.9-3.6l-1.9,1.9c.2.6.3,1.3.4,2.1.2,1.9.1,3.8-.3,5.9-.1.7-.3,1.3-.5,2,.5,1.1,1,2.2,1.4,3.3.7-1.7,1.2-3.3,1.5-4.9.5-2.3.6-4.6.3-6.7Z"/>
    </g>
    <path class="st0" d="M137,91c-.2.2-.4.3-.6.5,0,0,0,.2-.1.2-1.1,2-2.5,3.7-4.2,5-.6.5-1.3,1-2.1,1.4h0c-.6.9-1.7,2.2-3.4,3.7-.1.1-.3.2-.4.4,2.9-.7,5.4-1.9,7.5-3.6,2-1.6,3.6-3.5,4.8-5.8,1.6-2.9,2.1-5.6,2.2-6.9-.9,1.9-2.2,3.6-3.7,5Z"/>
    <path class="st1" d="M128.3,103.9c-1.4,3.2-4.3,8.5-8.8,12.9-3.5,3.4-6.6,5.4-8.5,6.5-1.4.8-2.5,1.2-3,1.4-.5-.2-1.6-.6-3-1.4-1.9-1.1-5-3.1-8.5-6.5-3.5-3.4-6-7.5-7.5-10.2-.5-.9-.9-1.8-1.2-2.5-1.3-.4-2.5-.9-3.6-1.5.3.8,1.1,2.8,2.4,5.2,1.6,3,4.2,7.3,8.1,11,7.3,7.1,12.9,8.7,13.1,8.7h.4c0,.1.4,0,.4,0,.2,0,5.8-1.7,13.1-8.7,3.8-3.7,6.5-8,8.1-11,1.4-2.6,2.2-4.7,2.4-5.4-1.1.6-2.4,1.1-3.6,1.5Z"/>
    <path class="st1" d="M129.6,61.1l-1.1-1.8h-.2c0-.2-2-1.7-5.5-3.2-2-.9-4.2-1.5-6.5-2-2.8-.6-5.7-.9-8.7-.9s-5.9.3-8.7.9c-2.2.5-4.4,1.2-6.5,2-3.5,1.5-5.4,2.9-5.5,3l-.2.2-.8,1.7,1.9,1.9.9-1.9c.6-.4,2.2-1.5,4.8-2.6,1.9-.8,3.9-1.4,6-1.9,2.6-.6,5.3-.8,8.1-.8s5.5.3,8.1.8c2.1.4,4.1,1.1,6,1.9,2.7,1.1,4.4,2.2,4.9,2.6l1.2,1.9,1.8-1.8Z"/>
    <path class="st0" d="M126.1,94.8c0,0-.8,1.4-2.8,3.2-2.7,2.4-5.5,3.8-8.4,5.4-2.4,1.3-4.8,2.6-7.2,4.4-3.7,2.8-6.3,5.7-7.8,7.6-.2.3-.4.5-.6.8.6.6,1.3,1.1,1.9,1.6.2-.3.4-.6.7-.9,1.4-1.8,3.8-4.5,7.3-7.1,2.2-1.7,4.5-2.9,6.9-4.2,2.9-1.6,5.9-3.2,8.9-5.7,1.6-1.3,2.5-2.5,3-3.2.3,0,4.8-1.2,5.9-4.1-3.6,2.3-7.6,2.2-7.6,2.2Z"/>
    <path class="st0" d="M117.4,111.1c1.3-1.7,4.3-5.1,6.9-7.4-2.4,1.7-8.3,3.8-12.1,11.1-1.2,2.2-2.2,5.1-2.7,6.6.1,0,.2-.1.4-.2.8-.4,1.8-1,2.9-1.8.4-.9.9-2.1,1.6-3.5.9-1.7,1.9-3.3,3.1-4.7Z"/>
    <path class="st0" d="M103.6,119.6c.8.5,1.5,1,2.1,1.3,2.6-5.8,5.4-10.1,5.4-10.1-.2.2-3.9,3.4-7.5,8.8Z"/>
    <path class="st0" d="M99.4,106.4c2.5-2.8,6.3-5.4,11.1-7.7,8.7-4.2,12.2-8.4,12.2-14.5s-2.1-7.8-3-8.8l-1.4,2.1c.2.3.5.6.7,1,.6,1.1,1.3,2.9,1.3,5.6s-.7,4.5-2.3,6.4c-1.7,2-4.5,3.9-8.6,5.9-3.4,1.7-8.1,4.3-11.9,8.3-1.4,1.5-2.7,3.2-3.8,5.1.5.7,1,1.5,1.6,2.2,1.1-2.1,2.5-4,4-5.7Z"/>
    <path class="st0" d="M103.5,97.4c1.5-.9,3-1.6,4.5-2.4,3.6-1.8,7.1-3.4,9-7.2,1.9-3.6.5-7.8.2-8.8l-1.8,2.7c.2,1.4.3,3.3-.6,4.9-.7,1.4-1.7,2.5-3.2,3.5-1.4,1-3,1.8-4.8,2.6-1.5.7-3.1,1.5-4.7,2.5-2,1.2-4,2.7-5.8,4.4-1.4,1.3-2.8,2.8-4.1,4.4-.5.6-.9,1.1-1.2,1.6.4.7.8,1.5,1.4,2.3,1.7-2.6,5.4-7.3,11-10.7Z"/>
    <path class="st0" d="M98.7,85.8c3,1.5,8.3,2.2,11-.5,5.1-5.3-.4-13.3-7.2-10.7,1.7-3.6,5.1-4.8,9.2-4.8,4.2,0,7.7,1.9,10.2,5.2,2,2.7,3.2,6,3.2,9.3h0c-.2,11.9-14.1,14.7-21.9,21.4-1.8,1.2-4.7,5-6.6,7.9.4.5.9,1,1.4,1.5.1.1.2.2.3.3,1.7-3.1,5.8-8.7,13.9-12.7,9.9-4.7,18.1-12.7,14.4-23.7-.9-2.6-2.2-4.9-4-6.8h0c-4.2-5-11.7-6.7-18-3.2-6.4,3.5-5.5,10.2-4.8,12.2.3-1.6,3.8-6.8,8-3.5.6.5,1.3,1.4,1.3,2.9,0,2.6-1.8,4.2-4.4,4.2-8,.2-13.5-8.5-13.6-15.8l-2.3-2.3c-1.2,6.6,3.5,16.1,9.9,19.2Z"/>
  </g>
</svg>