<?xml version="1.0" encoding="UTF-8"?>
<svg id="Layer_1" xmlns="http://www.w3.org/2000/svg" version="1.1" viewBox="0 0 547.1 216">
  <!-- Generator: Adobe Illustrator 29.2.1, SVG Export Plug-In . SVG Version: 2.1.0 Build 116)  -->
  <defs>
    <style>
      .st0 {
        fill: #2c2927;
      }

      .st1 {
        fill: #bc9b5f;
      }
    </style>
  </defs>
  <g>
    <g>
      <path class="st0" d="M129.9,70.1h31.3l3.5,9.7c-1.3-2.7-3.1-4.8-5.7-6.4-2.5-1.6-5.2-2.4-8.2-2.4h-4.6c-1.3,0-2.4.4-3.3,1.3-.9.9-1.4,1.9-1.4,3.2v13.3h9.2c1.6,0,3-.5,4.2-1.5,1.2-1,1.9-2.3,2.2-3.9v11.7c-.2-1.5-1-2.8-2.2-3.9-1.2-1-2.6-1.5-4.2-1.5h-9.2v17.6c0,1.4.4,2.6,1.3,3.5.9,1.1,1.9,1.7,3.2,2h-16.1c1.3-.3,2.4-.9,3.2-2,.8-1,1.2-2.2,1.2-3.5v-31.8c0-1.3-.4-2.5-1.3-3.5-.8-1.1-1.9-1.7-3.1-2Z"/>
      <path class="st0" d="M184,112c3,0,5.7-.8,8.2-2.4,2.5-1.6,4.4-3.7,5.7-6.4l-3.5,9.7h-30.4c1.3-.2,2.3-.9,3.2-2,.9-1.1,1.3-2.2,1.3-3.5v-31.8c0-1.3-.4-2.5-1.3-3.5-.8-1-1.9-1.7-3.2-2h16.1c-1.3.2-2.4.9-3.2,1.9-.8,1-1.3,2.2-1.3,3.6v31.9c0,1.3.5,2.3,1.4,3.2.9.9,2,1.3,3.3,1.3h3.7Z"/>
      <path class="st0" d="M213.9,71.1c-1.3,0-2.3.4-3.2,1.3-.9.9-1.3,1.9-1.3,3.2v13.3h9.2c1.5,0,2.9-.5,4.1-1.5,1.2-1,1.9-2.3,2.2-3.9v11.7c-.3-1.5-1-2.8-2.2-3.9-1.2-1-2.6-1.5-4.1-1.5h-9.2v17.7c0,1.2.4,2.3,1.3,3.1.9.9,2,1.3,3.2,1.3h4.8c2.9,0,5.7-.8,8.2-2.4,2.5-1.6,4.4-3.7,5.7-6.4l-3.5,9.7h-31.4c1.3-.3,2.4-.9,3.2-2,.8-1,1.3-2.2,1.3-3.5v-31.8c0-1.3-.4-2.5-1.2-3.5-.9-1.1-2-1.7-3.2-2h31.4l3.5,9.7c-1.3-2.7-3.2-4.8-5.7-6.4-2.5-1.6-5.2-2.4-8.2-2.4h-4.7Z"/>
      <path class="st0" d="M265.9,108.2c1.5,2.6,3.7,4.2,6.6,4.8h-16.8c.7-.2,1.3-.5,1.8-1.1.5-.6.7-1.2.7-1.9s-.2-1.1-.5-1.6l-8.3-14.6-9.7,14.7c-.5.9-.5,1.8,0,2.7.4.9,1.2,1.5,2.1,1.7h-9.5c2.5-.5,4.7-2.1,6.5-5l8.2-12.2c1.3-1.9,1.3-3.9.1-6l-8.4-14.7c-1.5-2.7-3.8-4.4-6.8-5h16.8c-.7.2-1.3.5-1.7,1.1-.4.6-.6,1.2-.6,1.9s.1,1,.4,1.5l7.6,13.4,7.6-13.3c.2-.4.4-.9.4-1.4,0-.8-.2-1.5-.7-2-.5-.6-1.1-1-1.8-1.1h9.4c-2.7.6-4.7,2.2-6.3,4.9l-6.4,10.9c-.5.9-.7,2-.7,3.2,0,1.2.3,2.2.8,3.1l9.2,16Z"/>
      <path class="st0" d="M310.8,91.4h22.8c0,1.8,0,3.3-.1,4.8,0,1.4-.3,3-.6,4.6-.3,1.6-.7,3.1-1.3,4.3-.5,1.2-1.2,2.5-2.1,3.7-.9,1.2-2,2.2-3.2,3-1.2.8-2.7,1.4-4.6,1.9-1.8.5-3.8.7-6,.7s-5.9-.5-8.5-1.5c-2.6-1-4.7-2.4-6.4-4.1-1.7-1.7-3.1-3.7-4.3-5.9s-1.9-4.5-2.1-7c-.3-2.4-.3-4.9,0-7.3.2-2.4.9-4.8,2-7,1.1-2.2,2.5-4.2,4.1-5.9,1.6-1.7,3.7-3.1,6.2-4.1,2.5-1,5.3-1.5,8.3-1.5h12.7l3.5,10c-1.3-2.7-3.1-4.9-5.7-6.5-2.5-1.6-5.2-2.4-8.2-2.4h-1.1c-2.9,0-5.4,1-7.6,3.1-2.2,2-3.7,4.6-4.7,7.6-1,3.1-1.5,6.4-1.6,10,0,3.6.4,6.9,1.3,10.1.9,3.1,2.4,5.7,4.5,7.9,2.1,2.1,4.6,3.3,7.6,3.5,5.3,0,8.9-1.8,11-5.4,1.6-2.8,1.9-5.8.7-9-1.1-3-3-5-5.8-5.9-1-.3-2.1-.5-3.2-.5h-7.6v-1Z"/>
      <path class="st0" d="M353.2,112c3,0,5.7-.8,8.2-2.4,2.5-1.6,4.4-3.7,5.7-6.4l-3.5,9.7h-30.4c1.3-.2,2.3-.9,3.2-2,.9-1.1,1.3-2.2,1.3-3.5v-31.8c0-1.3-.4-2.5-1.3-3.5-.8-1-1.9-1.7-3.2-2h16.1c-1.3.2-2.4.9-3.2,1.9-.8,1-1.3,2.2-1.3,3.6v31.9c0,1.3.5,2.3,1.4,3.2.9.9,2,1.3,3.3,1.3h3.7Z"/>
      <path class="st0" d="M390.6,68.7c4.2,0,8,1,11.6,3.1,3.5,2,6.3,4.8,8.4,8.3,2.1,3.5,3.1,7.3,3.1,11.5s-1,8-3.1,11.5c-2.1,3.5-4.9,6.3-8.4,8.4s-7.4,3.1-11.6,3.1-8.1-1-11.6-3.1c-3.6-2.1-6.4-4.9-8.4-8.4-2.1-3.5-3.1-7.4-3.1-11.5s1-7.9,3.1-11.5c2.1-3.5,4.9-6.3,8.4-8.3,3.6-2,7.4-3.1,11.6-3.1ZM390.6,113.6c9.5,0,14.2-7.3,14.2-21.9s-4.7-22.1-14.2-22.1-14.4,7.3-14.4,22,4.8,22,14.4,22Z"/>
      <path class="st0" d="M433.9,89.1c2.1,0,4,0,5.7.4,1.8.3,3.4.9,4.9,1.8,1.5.9,2.7,2.1,3.5,3.7.9,1.6,1.3,3.6,1.3,5.9,0,3.4-1.3,6.3-3.8,8.6-2.5,2.3-5.8,3.5-9.8,3.5h-22.5c1.3-.3,2.4-.9,3.2-2,.8-1,1.3-2.2,1.3-3.5v-31.8c0-1.3-.4-2.5-1.3-3.5-.8-1-1.9-1.7-3.2-2h20.8c3.3,0,5.9.7,8,2.2,2.1,1.5,3.1,3.7,3.1,6.8s-.2,2.3-.6,3.3c-.4,1-.9,1.8-1.4,2.4-.5.6-1.3,1.2-2.2,1.7-1,.5-1.8.9-2.4,1.1-.6.2-1.5.5-2.5.8-1,.3-1.7.5-2,.6ZM430.2,71.1c-1.5,0-2.7.4-3.8,1.3-1,.9-1.6,1.9-1.6,3.2v14.2c.6,0,1.2-.2,1.8-.3.6-.1,1.5-.3,2.6-.5,1.1-.3,2.1-.6,3-1.1s1.8-1.1,2.7-1.7c.9-.7,1.6-1.5,2.1-2.6.5-1.1.8-2.2.8-3.5,0-2.6-.6-4.7-1.8-6.4-1.2-1.7-3-2.5-5.3-2.5h-.6ZM430.9,112c3.1,0,5.7-1.1,7.9-3.3,2.2-2.2,3.2-4.8,3.2-7.9s-.3-2.7-.9-3.9c-.6-1.2-1.3-2.1-2.1-2.9-.8-.8-1.8-1.4-3-2-1.2-.6-2.3-1-3.4-1.3-1.1-.3-2.2-.5-3.4-.7-1.2-.2-2.1-.3-2.7-.3-.6,0-1.2,0-1.7,0v17.7c0,1.3.5,2.4,1.5,3.2s2.3,1.3,4,1.3h.6Z"/>
      <path class="st0" d="M489.3,112.9h-16.1c1.2-.3,2-.9,2.5-2,.5-1,.5-2.2,0-3.5l-2.1-6.1h-16.9l-2.1,6.1c-.4,1.3-.4,2.5,0,3.5.5,1,1.3,1.7,2.5,2h-9.7c1.4-.3,2.7-.9,3.9-2,1.2-1,2-2.2,2.4-3.5l11-31.7h0c-.4-1.5-1.3-2.6-2.4-3.7-1.2-1-2.5-1.7-3.9-2h16.1c-1.2.3-2.1.9-2.5,2-.5,1-.5,2.2,0,3.5l11,31.8c.5,1.3,1.3,2.5,2.5,3.5,1.2,1,2.5,1.7,3.9,2ZM457,100.5h16.2l-8.1-23.5-8.1,23.5Z"/>
      <path class="st0" d="M509.6,112c3,0,5.7-.8,8.2-2.4,2.5-1.6,4.4-3.7,5.7-6.4l-3.5,9.7h-30.4c1.3-.2,2.3-.9,3.2-2,.9-1.1,1.3-2.2,1.3-3.5v-31.8c0-1.3-.4-2.5-1.3-3.5-.8-1-1.9-1.7-3.2-2h16.1c-1.3.2-2.4.9-3.2,1.9-.8,1-1.3,2.2-1.3,3.6v31.9c0,1.3.5,2.3,1.4,3.2.9.9,2,1.3,3.3,1.3h3.7Z"/>
    </g>
    <g>
      <path class="st1" d="M219,145.1v-10.3h2.2v10.3h-2.2Z"/>
      <path class="st1" d="M239.4,145.1v-10.3h2.4l2.7,4.1c.2.3.5.7.8,1.2.3.4.5.8.7,1.1l.3.4v-6.7h2.2v10.3h-2.4l-2.6-3.9c-.3-.4-.6-.9-.9-1.4-.3-.5-.6-.9-.8-1.2l-.3-.4v6.8h-2.2Z"/>
      <path class="st1" d="M266.2,143.8l.8-1.7c1.1.8,2.2,1.1,3.4,1.1s1-.1,1.4-.4c.4-.2.6-.5.6-.9s-.2-.6-.5-.8c-.3-.2-.8-.3-1.4-.5-.4-.1-.8-.2-1.2-.3-.3,0-.7-.2-1-.4s-.7-.4-.9-.6-.4-.5-.6-.8-.2-.7-.2-1.1c0-.9.4-1.7,1.1-2.2.8-.5,1.7-.8,2.7-.8s2.7.4,3.8,1.1l-.8,1.7c-.9-.6-1.9-.8-3-.8s-.7,0-1.1.2-.5.4-.5.8.2.5.5.7c.3.2.8.3,1.5.5,2.6.6,3.9,1.7,3.9,3.3s-.4,1.8-1.3,2.4c-.8.6-1.8.8-3,.8-1.7,0-3.1-.5-4.2-1.4Z"/>
      <path class="st1" d="M299.8,144.1c-.9.8-1.9,1.2-3.1,1.2s-2.3-.4-3.1-1.2c-.9-.8-1.3-1.8-1.3-3.1v-6.3h2.2v6.2c0,.7.2,1.2.6,1.7.4.4,1,.6,1.6.6s1.2-.2,1.6-.6c.4-.4.6-1,.6-1.7v-6.2h2.2v6.3c0,1.2-.4,2.3-1.3,3Z"/>
      <path class="st1" d="M319.1,145.1v-10.3h4.4c1.5,0,2.6.4,3.4,1.1.8.7,1.2,1.7,1.2,2.9s-.2,1.3-.5,1.9c-.3.6-.8,1.1-1.4,1.4l2.2,3h-2.7l-1.6-2.4c-.4,0-.9,0-1.5,0h-1.2v2.4h-2.2ZM321.3,140.8h2.3c.7,0,1.2-.2,1.6-.6.4-.4.6-.9.6-1.5s-.2-1.1-.6-1.5c-.4-.4-.9-.6-1.6-.6h-2.3v4.1Z"/>
      <path class="st1" d="M344.9,145.1l4.5-10.3h2.2l4.4,10.3h-2.1l-.7-1.6h-5.2l-.7,1.6h-2.3ZM348.7,141.7h3.8l-.8-1.9-1.1-2.6c-.4,1.1-.7,2-1,2.7l-.8,1.9Z"/>
      <path class="st1" d="M373.3,145.1v-10.3h2.4l2.7,4.1c.2.3.5.7.8,1.2.3.4.5.8.7,1.1l.3.4v-6.7h2.2v10.3h-2.4l-2.6-3.9c-.3-.4-.6-.9-.9-1.4-.3-.5-.6-.9-.8-1.2l-.3-.4v6.8h-2.2Z"/>
      <path class="st1" d="M400.1,139.9c0-1.5.5-2.7,1.6-3.8,1-1,2.3-1.5,3.9-1.5s2.4.4,3.4,1.1l-1.3,1.5c-.6-.4-1.2-.6-2-.6s-1.8.3-2.4,1c-.6.6-.9,1.4-.9,2.3s.3,1.7.9,2.3c.6.6,1.4,1,2.3,1s1.7-.3,2.3-.8l1.4,1.5c-1,.9-2.2,1.3-3.7,1.3s-2.9-.5-3.9-1.5c-1-1-1.6-2.3-1.6-3.8Z"/>
      <path class="st1" d="M426.6,145.1v-10.3h8.1v1.9h-5.9v2.1h5.6v1.9h-5.6v2.5h6.1v1.9h-8.4Z"/>
    </g>
  </g>
  <g>
    <path class="st0" d="M70.3,90.1c0,1.5-1.2,2.7-2.7,2.7s-2.7-1.2-2.7-2.7h5.5Z"/>
    <path class="st0" d="M35,87.3c-.8-.6-1.7-1.3-2.6-2.3-4.1-4.1-6.4-9.3-6.7-11.8,0,0-1.9,6.8,4.9,13.7,2,2,3.9,3.3,4.9,3.9-.2-1.2-.4-2.4-.4-3.6Z"/>
    <path class="st0" d="M35.8,80c-.9-.8-2.1-2-3.3-3.6-1.3-1.7-2.4-3.6-3.2-5.6-1-2.5-1.6-5.1-1.8-7.8,0,0-2.6,8.2,2.9,15.1,2.1,2.7,4.1,4.3,4.8,4.8.1-1,.3-2,.6-3Z"/>
    <path class="st0" d="M36.2,113.2c0,.2,3.7,4.5,10.3,5.2h0c-2.2-1.4-4.3-3-6.1-4.8l-4.2-.4Z"/>
    <path class="st0" d="M33.3,103.2c-.2-.5-.5-1-.7-1.5-1.3-.8-3.7-2.3-3.7-2.3,0,0,.3,4.7,4.5,8.6,2,1.9,4.2,2.6,4.8,2.9-1.9-2.3-3.6-4.9-4.9-7.6Z"/>
    <path class="st0" d="M43,108.2c-1.9-2.2-3.5-4.6-4.8-7.2-1.1-2.3-1.7-4.4-2-5.7,0,0,0-.1,0-.2l-2.4-1.5c-.2-.1-.4-.2-.6-.4,0,.2.1,1,.3,2.1-1.9-1.3-3.5-2.7-4.9-4.3-1.4-1.7-2.5-3.5-3.3-5.5-1.1-2.7-1.4-5.1-1.3-6h0s-2.3,6.7,2.5,13.1c1.8,2.4,4.4,4.4,7.3,6l.8.5c.3.9.7,1.9,1.2,2.9,1.3,2.9,3.1,5.5,5.2,7.9,2.2,2.5,4.9,4.7,7.9,6.5.7-.6,1.4-1.2,2.2-1.8-3.1-1.7-5.8-3.9-8.1-6.4Z"/>
    <path class="st0" d="M31.7,111.4c0,0,0-.2-.1-.3-.2-.2-.4-.4-.6-.6-1.7-1.6-3.1-3.5-4.1-5.6.2,1.4.7,4.3,2.4,7.6,1.3,2.5,3.1,4.7,5.3,6.4,2.3,1.9,5.1,3.2,8.3,4l.2-.3c0-.1.6-.9,1.6-2-3.3-.7-6.1-1.9-8.4-3.7-1.9-1.5-3.4-3.3-4.6-5.5Z"/>
    <path class="st0" d="M91.5,87.3c.8-.6,1.7-1.3,2.6-2.3,4.1-4.1,6.4-9.3,6.7-11.8,0,0,1.9,6.8-4.9,13.7-2,2-3.9,3.3-4.9,3.9.2-1.2.4-2.4.4-3.6Z"/>
    <path class="st0" d="M90.7,80c.9-.8,2.1-2,3.3-3.6,1.3-1.7,2.4-3.6,3.2-5.6,1-2.5,1.6-5.1,1.8-7.8,0,0,2.6,8.2-2.9,15.1s-4.1,4.3-4.8,4.8c-.1-1-.3-2-.6-3Z"/>
    <path class="st0" d="M93.2,103.2c.2-.5.5-1,.7-1.5,1.3-.8,3.7-2.3,3.7-2.3,0,0-.3,4.7-4.5,8.6-2,1.9-4.2,2.6-4.8,2.9,1.9-2.3,3.6-4.9,4.9-7.6Z"/>
    <path class="st0" d="M102.6,79.5h0c0,.9-.2,3.3-1.3,6-.8,2-1.9,3.8-3.3,5.5-1.4,1.6-3,3.1-4.9,4.3.2-1.1.3-1.8.3-2.1-.2.2-.5.3-.6.4l-2.4,1.5c0,0,0,.1,0,.2-.3,1.3-.9,3.2-1.9,5.5,0,.8.1,1.5.1,2.2,0,1.2,0,2.4-.3,3.5,1-1.4,1.8-2.9,2.5-4.4.5-1,.9-2,1.2-2.9l.8-.5c2.9-1.7,5.5-3.6,7.3-6,4.8-6.4,2.5-13.1,2.5-13.1Z"/>
    <path class="st0" d="M83.8,89.2h0c.2.2.3.5.5.7.5-3.1,0-5.4-.2-6.2l-2.8,2.8c.9.8,1.7,1.7,2.4,2.7Z"/>
    <g>
      <path class="st0" d="M44.9,105.3c1.3,1.4,2.8,2.6,4.4,3.6,2,1.2,4.1,2.1,6.5,2.7,1.4-.7,2.7-1.3,3.9-1.9,0,0,0,0,0,0-3.5-.5-6.5-1.5-9-3-2.9-1.8-5.3-4.2-7.2-7.5-1.7-3-2.9-5.9-3.5-8.7-.5-2.2-.6-4.4-.3-6.5.1-.9.3-1.6.5-2.3l-2.1-2.1c-.4,1-.7,2.4-1,3.9-.3,2.4-.2,4.9.3,7.4.6,3.1,1.9,6.4,3.8,9.6,1.1,1.9,2.3,3.5,3.7,4.9Z"/>
      <path class="st0" d="M89.4,83.3c-.2-1.6-.6-2.9-1-3.9l-2.1,2.1c.2.7.3,1.4.5,2.3.2,2.1.1,4.2-.3,6.5-.2.7-.3,1.5-.6,2.2.6,1.2,1.1,2.4,1.5,3.6.8-1.8,1.3-3.6,1.7-5.4.5-2.5.6-5,.3-7.4Z"/>
    </g>
    <path class="st0" d="M95.5,110.6c-.2.2-.4.4-.6.6,0,0,0,.2-.1.3-1.2,2.2-2.7,4-4.6,5.5-.7.6-1.5,1.1-2.3,1.5h0c-.6,1-1.8,2.5-3.8,4.1-.2.1-.3.3-.5.4,3.2-.8,6-2.1,8.3-4,2.2-1.7,4-3.9,5.3-6.4,1.7-3.2,2.3-6.2,2.4-7.6-1,2.1-2.4,4-4.1,5.6Z"/>
    <path class="st1" d="M85.9,124.8c-1.6,3.5-4.7,9.4-9.7,14.2-3.9,3.8-7.3,6-9.4,7.2-1.6.9-2.8,1.4-3.3,1.6-.6-.2-1.8-.7-3.3-1.6-2.1-1.2-5.5-3.4-9.4-7.2-3.9-3.8-6.7-8.2-8.3-11.3-.5-1-1-2-1.4-2.8-1.4-.4-2.7-1-4-1.6.3.9,1.2,3.1,2.6,5.7,1.7,3.3,4.7,8.1,8.9,12.1,8.1,7.8,14.2,9.6,14.5,9.6h.4c0,.1.4,0,.4,0,.3,0,6.4-1.8,14.5-9.6,4.2-4.1,7.2-8.9,8.9-12.1,1.5-2.9,2.4-5.1,2.7-5.9-1.3.7-2.6,1.2-4,1.7Z"/>
    <path class="st1" d="M87.3,77.6l-1.2-2-.2-.2c0,0-2.2-1.7-6.1-3.3-2.3-.9-4.7-1.7-7.1-2.2-3.1-.7-6.3-1-9.6-1s-6.5.3-9.6,1c-2.5.5-4.9,1.3-7.1,2.2-3.9,1.6-6,3.3-6.1,3.3l-.3.2-.9,1.8,2.1,2.1,1-2.1c.6-.4,2.5-1.6,5.3-2.8,2.1-.9,4.3-1.6,6.6-2.1,2.9-.6,5.9-.9,8.9-.9s6,.3,8.9.9c2.3.5,4.5,1.2,6.6,2.1,3,1.2,4.8,2.5,5.4,2.9l1.3,2.1,2-2Z"/>
    <path class="st0" d="M83.5,114.8c0,0-.9,1.6-3.1,3.5-3,2.6-6.1,4.2-9.3,6-2.6,1.4-5.3,2.9-7.9,4.8-4.1,3.1-6.9,6.3-8.6,8.4-.2.3-.5.6-.7.9.7.6,1.4,1.2,2,1.8.2-.3.5-.7.8-1,1.6-2,4.2-5,8-7.8,2.5-1.9,4.9-3.2,7.6-4.6,3.2-1.7,6.6-3.5,9.8-6.3,1.7-1.5,2.7-2.7,3.3-3.5.4,0,5.3-1.4,6.5-4.5-4,2.5-8.4,2.5-8.4,2.5Z"/>
    <path class="st0" d="M73.8,132.8c1.4-1.8,4.7-5.6,7.6-8.2-2.6,1.9-9.1,4.2-13.4,12.2-1.3,2.5-2.4,5.6-2.9,7.3.1,0,.3-.1.4-.2.9-.5,1.9-1.1,3.2-2,.4-1,1-2.3,1.8-3.8,1-1.9,2.1-3.6,3.4-5.2Z"/>
    <path class="st0" d="M58.6,142.2c.9.6,1.7,1.1,2.3,1.5,2.9-6.4,5.9-11.2,5.9-11.2-.2.2-4.3,3.7-8.3,9.7Z"/>
    <path class="st0" d="M54,127.6c2.8-3.1,6.9-5.9,12.2-8.5,9.6-4.6,13.5-9.2,13.5-16s-2.3-8.6-3.4-9.7l-1.5,2.3c.2.3.5.7.8,1.2.7,1.2,1.4,3.2,1.4,6.2s-.8,5-2.5,7c-1.9,2.2-5,4.4-9.5,6.5-3.8,1.8-9,4.8-13.1,9.2-1.6,1.7-3,3.5-4.2,5.6.6.8,1.2,1.6,1.8,2.4,1.2-2.4,2.8-4.4,4.4-6.3Z"/>
    <path class="st0" d="M58.5,117.7c1.7-1,3.3-1.8,5-2.6,4-2,7.8-3.8,10-7.9,2.1-4,.6-8.6.2-9.7l-2,3c.3,1.5.3,3.6-.6,5.4-.8,1.5-1.9,2.8-3.5,3.9-1.5,1.1-3.3,2-5.3,2.9-1.7.8-3.4,1.6-5.2,2.7-2.2,1.3-4.4,3-6.4,4.8-1.6,1.5-3.1,3.1-4.5,4.9-.5.6-.9,1.2-1.3,1.8.4.8.9,1.7,1.5,2.6,1.9-2.9,5.9-8.1,12.1-11.8Z"/>
    <path class="st0" d="M53.2,104.9c3.3,1.7,9.1,2.4,12.1-.5,5.6-5.8-.4-14.7-8-11.8,1.9-4,5.7-5.3,10.2-5.4,4.6,0,8.5,2.1,11.3,5.8,2.2,3,3.5,6.6,3.6,10.3h0c-.2,13.2-15.5,16.2-24.2,23.7-2,1.4-5.2,5.5-7.3,8.7.5.5,1,1.1,1.6,1.6.1.1.3.2.4.4,1.9-3.5,6.4-9.6,15.3-14,10.9-5.2,20-14,15.9-26.2-1-2.8-2.4-5.4-4.4-7.6h0c-4.6-5.5-12.9-7.4-19.9-3.5-7,3.9-6.1,11.3-5.3,13.5.3-1.7,4.2-7.5,8.9-3.9.7.6,1.5,1.6,1.5,3.2,0,2.9-2,4.7-4.9,4.6-8.8.2-14.9-9.4-15.1-17.4l-2.5-2.5c-1.3,7.3,3.9,17.8,10.9,21.2Z"/>
  </g>
</svg>